<?xml version="1.0" encoding="UTF-8"?><svg id="small_icons" xmlns="http://www.w3.org/2000/svg" viewBox="0 0 50 50"><defs><style>.cls-1{fill:#fff;}.cls-2{fill:#ff2c72;}</style></defs><circle class="cls-2" cx="25.11" cy="25" r="25"/><g><path class="cls-1" d="m21.87,27.27h3.96c.35,1.59,1.76,2.78,3.45,2.78,1.95,0,3.53-1.58,3.53-3.53s-1.58-3.53-3.53-3.53c-1.69,0-3.1,1.19-3.45,2.78h-3.96c-.41,0-.75.34-.75.75s.34.75.75.75Zm7.4-2.78c1.12,0,2.03.91,2.03,2.03s-.91,2.03-2.03,2.03-2.03-.91-2.03-2.03.91-2.03,2.03-2.03Z"/><path class="cls-1" d="m24.2,16.61l-2.95,3.3c-.14.15-.03.39.18.39h1.97l-.65,2.42c-.06.24.24.4.4.22l2.95-3.3c.14-.15.03-.39-.18-.39h-1.97l.65-2.42c.06-.24-.24-.4-.4-.22Z"/><path class="cls-1" d="m41.33,23.36c0-.41-.34-.75-.75-.75h-3.75v-.66c0-.6-.16-1.19-.47-1.7l-3.27-5.49c-.72-1.21-2.04-1.96-3.45-1.96h-8.47c-1.03,0-2,.39-2.75,1.09l-3.06,4.38-4.23,1.84c-1.36.59-2.25,1.94-2.25,3.43,0,1.85,1.35,3.38,3.11,3.68.32,1.62,1.75,2.84,3.46,2.84,1.95,0,3.53-1.58,3.53-3.53s-1.58-3.53-3.53-3.53c-1.66,0-3.04,1.15-3.42,2.69-.95-.26-1.65-1.12-1.65-2.15,0-.89.53-1.7,1.34-2.05l4.62-2.01,3.15-4.54c.46-.41,1.05-.63,1.67-.63h8.47c.88,0,1.71.47,2.16,1.23l3.28,5.49c.17.28.26.6.26.93v2c0,.52-.25,1.06-.66,1.44-.31.28-.33.75-.05,1.06s.75.33,1.06.05c.69-.63,1.09-1.5,1.13-2.39h2.99c-.36,6.61-5.5,11.86-12.1,12.39-.4-1.71-1.98-3.01-3.82-3.01h-1.55c-.56,0-1.01.45-1.01,1.01v.75h-1.42c-.41,0-.75.34-.75.75s.34.75.75.75h1.42v1.2h-1.42c-.41,0-.75.34-.75.75s.34.75.75.75h1.42v.75c0,.56.45,1.01,1.01,1.01h1.62c1.05,0,2.03-.42,2.76-1.17.55-.57.91-1.28,1.04-2.04,7.66-.57,13.58-6.87,13.58-14.64Zm-25.86,1.13c1.12,0,2.03.91,2.03,2.03s-.91,2.03-2.03,2.03-2.03-.91-2.03-2.03.91-2.03,2.03-2.03Zm10.17,14.5c-.45.46-1.05.71-1.69.71h-1.13v-4.71h1.06c1.3,0,2.39,1.03,2.42,2.29.02.64-.22,1.25-.67,1.71Z"/></g></svg>