<?xml version="1.0" encoding="UTF-8"?><svg id="small_icons" xmlns="http://www.w3.org/2000/svg" viewBox="0 0 50 50"><defs><style>.cls-1{fill:#fff;}.cls-2{fill:#aad7ed;}</style></defs><circle class="cls-2" cx="25" cy="25" r="25"/><g><path class="cls-1" d="m25,13.29c-7,0-12.7,5.7-12.7,12.7,0,4.5,2.42,8.71,6.31,10.98.12.07.25.1.38.1.26,0,.51-.13.65-.37.21-.36.09-.82-.27-1.03-3.44-2-5.57-5.72-5.57-9.69,0-6.18,5.03-11.2,11.2-11.2s11.2,5.03,11.2,11.2c0,3.97-2.13,7.68-5.57,9.69-.36.21-.48.67-.27,1.03.21.36.67.48,1.03.27,3.89-2.27,6.31-6.48,6.31-10.98,0-7-5.7-12.7-12.7-12.7Z"/><path class="cls-1" d="m25,11.76c.41,0,.75-.34.75-.75v-2.3c0-.41-.34-.75-.75-.75s-.75.34-.75.75v2.3c0,.41.34.75.75.75Z"/><path class="cls-1" d="m18.56,12.44c.12.29.4.46.69.46.1,0,.19-.02.29-.06.38-.16.56-.6.41-.98l-.88-2.12c-.16-.38-.6-.56-.98-.41-.38.16-.56.6-.41.98l.88,2.12Z"/><path class="cls-1" d="m14.38,16.16c.19,0,.38-.07.53-.22.29-.29.29-.77,0-1.06l-1.62-1.62c-.29-.29-.77-.29-1.06,0s-.29.77,0,1.06l1.62,1.62c.15.15.34.22.53.22Z"/><path class="cls-1" d="m11.41,19.59l-2.12-.88c-.38-.16-.82.02-.98.41-.16.38.02.82.41.98l2.12.88c.09.04.19.06.29.06.29,0,.57-.17.69-.46.16-.38-.02-.82-.41-.98Z"/><path class="cls-1" d="m10.73,26.03c0-.41-.34-.75-.75-.75h-2.3c-.41,0-.75.34-.75.75s.34.75.75.75h2.3c.41,0,.75-.34.75-.75Z"/><path class="cls-1" d="m10.84,31.08l-2.12.88c-.38.16-.56.6-.41.98.12.29.4.46.69.46.1,0,.19-.02.29-.06l2.12-.88c.38-.16.56-.6.41-.98-.16-.38-.6-.56-.98-.41Z"/><path class="cls-1" d="m41.28,31.96l-2.12-.88c-.38-.15-.82.02-.98.41-.16.38.02.82.41.98l2.12.88c.09.04.19.06.29.06.29,0,.57-.17.69-.46.16-.38-.02-.82-.41-.98Z"/><path class="cls-1" d="m42.31,25.28h-2.3c-.41,0-.75.34-.75.75s.34.75.75.75h2.3c.41,0,.75-.34.75-.75s-.34-.75-.75-.75Z"/><path class="cls-1" d="m38.87,21.03c.1,0,.19-.02.29-.06l2.12-.88c.38-.16.56-.6.41-.98-.16-.38-.6-.56-.98-.41l-2.12.88c-.38.16-.56.6-.41.98.12.29.4.46.69.46Z"/><path class="cls-1" d="m36.71,13.26l-1.62,1.62c-.29.29-.29.77,0,1.06.15.15.34.22.53.22s.38-.07.53-.22l1.62-1.62c.29-.29.29-.77,0-1.06-.29-.29-.77-.29-1.06,0Z"/><path class="cls-1" d="m30.46,12.85c.09.04.19.06.29.06.29,0,.57-.17.69-.46l.88-2.12c.16-.38-.02-.82-.41-.98-.38-.15-.82.02-.98.41l-.88,2.12c-.16.38.02.82.41.98Z"/><path class="cls-1" d="m25,27.12c-.41,0-.75.34-.75.75v8.67c0,.41.34.75.75.75s.75-.34.75-.75v-8.67c0-.41-.34-.75-.75-.75Z"/><path class="cls-1" d="m28.79,25.94l-3.04-1.76v-3.51c0-.41-.34-.75-.75-.75s-.75.34-.75.75v3.51l-3.04,1.76c-.36.21-.48.67-.27,1.02.14.24.39.38.65.38.13,0,.26-.03.37-.1l3.04-1.76,3.04,1.76c.12.07.25.1.37.1.26,0,.51-.13.65-.38.21-.36.08-.82-.27-1.02Z"/></g></svg>