<?xml version="1.0" encoding="UTF-8"?><svg id="small_icons" xmlns="http://www.w3.org/2000/svg" viewBox="0 0 50 50"><defs><style>.cls-1{fill:#fff;}.cls-2{fill:#a8d893;}</style></defs><circle class="cls-2" cx="25.04" cy="25" r="25"/><g id="leaf-angle"><path class="cls-1" d="m24.06,35.19c-2.09,0-4.18-.72-5.97-2.17l-1.57-1.56c-3.25-4.01-2.88-9.37.85-13.1,3.43-3.43,11.46-4.19,13.04-4.31l4.58-.36c.22,0,.43.06.59.22s.23.37.22.59l-.36,4.59c-.12,1.57-.87,9.6-4.31,13.03-2.03,2.03-4.55,3.07-7.07,3.07Zm10.17-19.93l-3.71.29c-.91.07-8.96.75-12.09,3.87-3.21,3.21-3.53,7.65-.79,11.03l1.46,1.45c3.33,2.69,7.76,2.36,10.98-.85,2.37-2.37,3.57-7.99,3.87-12.08l.29-3.72Z"/><path class="cls-1" d="m15.04,36.3c-.1,0-.21-.02-.31-.07-.38-.17-.54-.61-.37-.99.09-.2,2.32-5,10.17-12.46.3-.29.77-.27,1.06.03.29.3.27.77-.03,1.06-7.6,7.23-9.81,11.94-9.83,11.99-.13.28-.4.44-.68.44Z"/></g></svg>