<?xml version="1.0" encoding="utf-8"?>
<!-- Generator: Adobe Illustrator 28.1.0, SVG Export Plug-In . SVG Version: 6.00 Build 0)  -->
<svg version="1.1" id="Layer_1" xmlns="http://www.w3.org/2000/svg" xmlns:xlink="http://www.w3.org/1999/xlink" x="0px" y="0px"
	 viewBox="0 0 80 80" style="enable-background:new 0 0 80 80;" xml:space="preserve">
<style type="text/css">
	.st0{fill:#C6C4C0;}
</style>
<g>
	<path class="st0" d="M40.8,40.6c-4.1,0.2-5.5,2.2-5.4,4c0.1,2.4,2.8,3.5,5.2,3.4c2.4-0.2,5.2-1.1,5.7-7.1c-1.3-0.2-2.7-0.4-4.1-0.4
		C41.7,40.5,41.3,40.6,40.8,40.6z"/>
	<path class="st0" d="M40-0.1C17.9-0.1,0,17.8,0,40s17.9,40,40,40s40-17.9,40-40S62.2-0.1,40-0.1z M27.8,53.6
		c2.7,3.5,6.8,5.2,12.3,5.2c5,0,8.2-1.2,10.9-3.9c3.1-3.1,3-6.9,2-9.2c-0.6-1.3-1.7-2.5-3-3.3c-0.4,2.6-1.1,4.6-2.4,6.3
		c-1.7,2-4,3.2-7,3.4c-2.2,0.1-4.4-0.5-6.1-1.6c-1.9-1.3-3.1-3.3-3.3-5.7c-0.2-4.6,3.5-7.9,9.1-8.3c2-0.1,4,0,5.7,0.3
		c-0.2-1.5-0.7-2.6-1.4-3.4c-1-1.1-2.5-1.7-4.4-1.7h-0.1c-1.7,0-3.8,0.5-5.2,2.6l-3.3-2.2c1.8-2.8,4.8-4.3,8.4-4.3h0.1
		c6.1,0.1,9.6,3.8,9.9,10.3c0.2,0.1,0.4,0.2,0.6,0.3c2.9,1.3,4.9,3.3,5.9,5.9c1.5,3.5,1.7,9.2-2.9,13.7c-3.5,3.5-7.7,5-13.7,5.1
		c-6.7-0.1-11.9-2.3-15.4-6.7c-3-4-4.7-9.4-4.7-16.3s1.7-12.3,4.7-16.3c3.5-4.4,8.6-6.6,15.5-6.7c6.7,0.1,12,2.3,15.4,6.6
		c1.7,2.2,3.1,4.8,3.9,7.8l-3.9,1c-0.7-2.5-1.7-4.6-3.1-6.3c-2.8-3.5-7-5.2-12.5-5.2c-5.4,0.1-9.6,1.8-12.3,5.2
		c-2.6,3.2-3.8,7.8-3.9,13.7C24,45.8,25.2,50.4,27.8,53.6z"/>
</g>
</svg>
