<?xml version="1.0" encoding="UTF-8"?><svg id="small_icons" xmlns="http://www.w3.org/2000/svg" viewBox="0 0 50 50"><defs><style>.cls-1{fill:#fff;}.cls-2{fill:#ff95b8;}</style></defs><circle class="cls-2" cx="25" cy="25" r="25"/><g><path class="cls-1" d="m17.27,38.42c-1.13,0-2.22-.35-3.07-.98-1-.75-1.58-1.85-1.58-3.02s.58-2.26,1.58-3.01c1.26-.95,3.12-1.23,4.7-.73.39.13.61.55.49.94-.13.39-.55.61-.94.49-1.13-.36-2.47-.16-3.35.5-.62.47-.98,1.13-.98,1.81s.36,1.35.98,1.82c1.17.88,3.16.88,4.33,0,.62-.47.98-1.13.98-1.82v-8.57c0-.41.34-.75.75-.75s.75.34.75.75v8.57c0,1.16-.58,2.26-1.58,3.02-.84.63-1.93.98-3.06.98Z"/><path class="cls-1" d="m30.73,34.18c-1.13,0-2.22-.35-3.06-.98-1-.75-1.58-1.85-1.58-3.02s.58-2.26,1.58-3.02c1.25-.94,3.11-1.23,4.68-.73.39.12.61.55.49.94-.13.4-.54.61-.94.49-1.12-.35-2.46-.15-3.33.5-.62.47-.98,1.13-.98,1.82s.36,1.35.98,1.82c1.17.88,3.16.88,4.33,0,.62-.47.98-1.13.98-1.82v-11.1l-12.45,4.5c-.23.08-.48.05-.69-.09-.2-.14-.32-.37-.32-.61v-5.58c0-.61.41-1.15.99-1.31l12.28-4.35c.44-.13.85-.05,1.18.2.33.25.51.62.51,1.03v17.31c0,1.16-.58,2.26-1.58,3.02-.84.63-1.93.98-3.07.98Zm-8.81-16.78v4.41l11.96-4.32v-4.33l-11.96,4.23Zm-.05.02h0s0,0,0,0Z"/></g></svg>