<?xml version="1.0" encoding="UTF-8"?><svg id="small_icons" xmlns="http://www.w3.org/2000/svg" viewBox="0 0 50 50"><defs><style>.cls-1{fill:#fff;}.cls-2{fill:#ff6161;}</style></defs><circle class="cls-2" cx="25.04" cy="25" r="25"/><g id="Lamps-Lights-Fire_Light-Bubbles_light-bulb"><g id="Group_36"><g id="Light_36"><g id="Oval_8"><path class="cls-1" d="m25,37.36c-6.51,0-11.81-5.3-11.81-11.81s5.3-11.81,11.81-11.81,11.81,5.3,11.81,11.81-5.3,11.81-11.81,11.81Zm0-22.12c-5.69,0-10.31,4.63-10.31,10.31s4.63,10.31,10.31,10.31,10.31-4.63,10.31-10.31-4.63-10.31-10.31-10.31Z"/></g><g id="Shape_229"><path class="cls-1" d="m28.46,40.12h-6.91c-.41,0-.75-.34-.75-.75s.34-.75.75-.75h6.91c.41,0,.75.34.75.75s-.34.75-.75.75Z"/></g><g id="Shape_230"><path class="cls-1" d="m28.46,42.89h-6.91c-.41,0-.75-.34-.75-.75s.34-.75.75-.75h6.91c.41,0,.75.34.75.75s-.34.75-.75.75Z"/></g><g id="Shape_231"><path class="cls-1" d="m28.46,45.65h-6.91c-.41,0-.75-.34-.75-.75s.34-.75.75-.75h6.91c.41,0,.75.34.75.75s-.34.75-.75.75Z"/></g><g id="Shape_232"><path class="cls-1" d="m25,47.04c-.41,0-.75-.34-.75-.75v-1.38c0-.41.34-.75.75-.75s.75.34.75.75v1.38c0,.41-.34.75-.75.75Z"/></g></g></g></g><g id="Shape_211"><path class="cls-1" d="m26.7,36.84c-.41,0-.75-.34-.75-.75v-7.19h-1.9v7.19c0,.41-.34.75-.75.75s-.75-.34-.75-.75v-7.19h-.95c-1.35,0-2.45-1.1-2.45-2.45s1.1-2.45,2.45-2.45,2.45,1.1,2.45,2.45v.95h1.9v-.95c0-1.35,1.1-2.45,2.45-2.45s2.45,1.1,2.45,2.45-1.1,2.45-2.45,2.45h-.95v7.19c0,.41-.34.75-.75.75Zm.75-9.44h.95c.53,0,.95-.43.95-.95s-.43-.95-.95-.95-.95.43-.95.95v.95Zm-5.85-1.9c-.53,0-.95.43-.95.95s.43.95.95.95h.95v-.95c0-.53-.43-.95-.95-.95Z"/></g><g id="Shape_223"><path class="cls-1" d="m25,12.43c-.41,0-.75-.34-.75-.75v-2.39c0-.41.34-.75.75-.75s.75.34.75.75v2.39c0,.41-.34.75-.75.75Z"/></g><g id="Shape_224"><path class="cls-1" d="m14.32,16.64c-.18,0-.37-.07-.51-.2l-1.74-1.62c-.3-.28-.32-.76-.04-1.06.28-.3.76-.32,1.06-.04l1.74,1.62c.3.28.32.76.04,1.06-.15.16-.35.24-.55.24Z"/></g><g id="Shape_225"><path class="cls-1" d="m35.6,16.72c-.2,0-.4-.08-.55-.24-.28-.3-.27-.78.04-1.06l1.74-1.62c.3-.28.78-.27,1.06.04.28.3.27.78-.04,1.06l-1.74,1.62c-.14.13-.33.2-.51.2Z"/></g><g id="Shape_226"><path class="cls-1" d="m10.65,26.97h-2.56c-.41,0-.75-.34-.75-.75s.34-.75.75-.75h2.56c.41,0,.75.34.75.75s-.34.75-.75.75Z"/></g><g id="Shape_227"><path class="cls-1" d="m41.9,26.97h-2.55c-.41,0-.75-.34-.75-.75s.34-.75.75-.75h2.55c.41,0,.75.34.75.75s-.34.75-.75.75Z"/></g></svg>