<svg xmlns="http://www.w3.org/2000/svg" xmlns:xlink="http://www.w3.org/1999/xlink" viewBox="0 0 800 600" width="800" height="600" preserveAspectRatio="xMidYMid meet" web-developer-inline-style="width: 100%; height: 100%; transform: translate3d(0px, 0px, 0px); content-visibility: visible;"><defs><clipPath id="__lottie_element_2"><rect width="800" height="600" x="0" y="0"></rect></clipPath></defs><g clip-path="url(#__lottie_element_2)"><g transform="matrix(1,0,0,1,0,0)" opacity="1" web-developer-inline-style="display: block;"><g opacity="1" transform="matrix(1,0,0,1,449.5320129394531,462.85198974609375)"><path fill="rgb(170,215,237)" fill-opacity="0" d=" M13.968999862670898,0.3709999918937683 C13.968999862670898,0.3709999918937683 1.1729999780654907,-19.399999618530273 1.1729999780654907,-19.399999618530273 C1.1729999780654907,-19.399999618530273 -13.968999862670898,3.8550000190734863 -13.968999862670898,3.8550000190734863 C-13.968999862670898,3.8550000190734863 1.5770000219345093,19.400999069213867 1.5770000219345093,19.400999069213867 C1.5770000219345093,19.400999069213867 13.968999862670898,0.3709999918937683 13.968999862670898,0.3709999918937683z"></path></g></g><g transform="matrix(1,0,0,1,0,0)" opacity="0.048760000000285686" web-developer-inline-style="display: none;"><g opacity="1" transform="matrix(1,0,0,1,400.0409851074219,326.02099609375)"><path stroke-linecap="round" stroke-linejoin="miter" fill-opacity="0" stroke-miterlimit="4" stroke="rgb(146,131,168)" stroke-opacity="1" stroke-width="21.526" d=" M0,58.75199890136719 C0,58.75199890136719 -152.96299743652344,-175.94000244140625 -152.96299743652344,-175.94000244140625 C-152.96299743652344,-175.94000244140625 -203.96400451660156,-175.94000244140625 -203.96400451660156,-175.94000244140625 C-203.96400451660156,-175.94000244140625 -0.04100000113248825,136.9409942626953 -0.04100000113248825,136.9409942626953 C-0.04100000113248825,136.9409942626953 203.96400451660156,-176.06700134277344 203.96400451660156,-176.06700134277344 C203.96400451660156,-176.06700134277344 152.96299743652344,-176.06700134277344 152.96299743652344,-176.06700134277344 C152.96299743652344,-176.06700134277344 50.959999084472656,-19.562999725341797 50.959999084472656,-19.562999725341797 C50.959999084472656,-19.562999725341797 25.458999633789062,-58.68899917602539 25.458999633789062,-58.68899917602539 C25.458999633789062,-58.68899917602539 127.46199798583984,-215.1929931640625 127.46199798583984,-215.1929931640625 C127.46199798583984,-215.1929931640625 280.46600341796875,-215.1929931640625 280.46600341796875,-215.1929931640625 C280.46600341796875,-215.1929931640625 76.46099853515625,97.81500244140625 76.46099853515625,97.81500244140625 C76.46099853515625,97.81500244140625 -54.891998291015625,-103.72000122070312 -106.75599670410156,-183.29600524902344"></path></g></g><g transform="matrix(1,0,0,1,0,0)" opacity="0.04776000000030933" web-developer-inline-style="display: none;"><g opacity="1" transform="matrix(1,0,0,1,400.0409851074219,326.02099609375)"><path stroke-linecap="round" stroke-linejoin="miter" fill-opacity="0" stroke-miterlimit="4" stroke="rgb(168,216,147)" stroke-opacity="1" stroke-width="21.526" d=" M0,58.75199890136719 C0,58.75199890136719 -152.96299743652344,-175.94000244140625 -152.96299743652344,-175.94000244140625 C-152.96299743652344,-175.94000244140625 -203.96400451660156,-175.94000244140625 -203.96400451660156,-175.94000244140625 C-203.96400451660156,-175.94000244140625 -0.04100000113248825,136.9409942626953 -0.04100000113248825,136.9409942626953 C-0.04100000113248825,136.9409942626953 203.96400451660156,-176.06700134277344 203.96400451660156,-176.06700134277344 C203.96400451660156,-176.06700134277344 152.96299743652344,-176.06700134277344 152.96299743652344,-176.06700134277344 C152.96299743652344,-176.06700134277344 50.959999084472656,-19.562999725341797 50.959999084472656,-19.562999725341797 C50.959999084472656,-19.562999725341797 25.458999633789062,-58.68899917602539 25.458999633789062,-58.68899917602539 C25.458999633789062,-58.68899917602539 127.46199798583984,-215.1929931640625 127.46199798583984,-215.1929931640625 C127.46199798583984,-215.1929931640625 280.46600341796875,-215.1929931640625 280.46600341796875,-215.1929931640625 C280.46600341796875,-215.1929931640625 76.46099853515625,97.81500244140625 76.46099853515625,97.81500244140625 C76.46099853515625,97.81500244140625 -127.46199798583984,-215.0659942626953 -127.46199798583984,-215.0659942626953 C-127.46199798583984,-215.0659942626953 -280.46600341796875,-215.0659942626953 -280.46600341796875,-215.0659942626953 C-280.46600341796875,-215.0659942626953 -150.48300170898438,-15.630999565124512 -67.50800323486328,111.6780014038086"></path></g></g><g transform="matrix(1,0,0,1,0,0)" opacity="0.2507600000003549" web-developer-inline-style="display: none;"><g opacity="1" transform="matrix(1,0,0,1,400.0409851074219,326.02099609375)"><path stroke-linecap="round" stroke-linejoin="miter" fill-opacity="0" stroke-miterlimit="4" stroke="rgb(22,30,36)" stroke-opacity="1" stroke-width="21.526" d=" M0,58.75199890136719 C0,58.75199890136719 -152.96299743652344,-175.94000244140625 -152.96299743652344,-175.94000244140625 C-152.96299743652344,-175.94000244140625 -203.96400451660156,-175.94000244140625 -203.96400451660156,-175.94000244140625 C-203.96400451660156,-175.94000244140625 -0.04100000113248825,136.9409942626953 -0.04100000113248825,136.9409942626953 C-0.04100000113248825,136.9409942626953 203.96400451660156,-176.06700134277344 203.96400451660156,-176.06700134277344 C203.96400451660156,-176.06700134277344 152.96299743652344,-176.06700134277344 152.96299743652344,-176.06700134277344 C152.96299743652344,-176.06700134277344 50.959999084472656,-19.562999725341797 50.959999084472656,-19.562999725341797 C50.959999084472656,-19.562999725341797 25.458999633789062,-58.68899917602539 25.458999633789062,-58.68899917602539 C25.458999633789062,-58.68899917602539 127.46199798583984,-215.1929931640625 127.46199798583984,-215.1929931640625 C127.46199798583984,-215.1929931640625 280.46600341796875,-215.1929931640625 280.46600341796875,-215.1929931640625 C280.46600341796875,-215.1929931640625 256.14801025390625,-177.8820037841797 224.3040008544922,-129.0229949951172"></path><path stroke-linecap="round" stroke-linejoin="miter" fill-opacity="0" stroke-miterlimit="4" stroke="rgb(22,30,36)" stroke-opacity="1" stroke-width="21.526" d=" M0,58.75199890136719 C0,58.75199890136719 -152.96299743652344,-175.94000244140625 -152.96299743652344,-175.94000244140625 C-152.96299743652344,-175.94000244140625 -203.96400451660156,-175.94000244140625 -203.96400451660156,-175.94000244140625 C-203.96400451660156,-175.94000244140625 -0.04100000113248825,136.9409942626953 -0.04100000113248825,136.9409942626953 C-0.04100000113248825,136.9409942626953 203.96400451660156,-176.06700134277344 203.96400451660156,-176.06700134277344 C203.96400451660156,-176.06700134277344 152.96299743652344,-176.06700134277344 152.96299743652344,-176.06700134277344 C152.96299743652344,-176.06700134277344 50.959999084472656,-19.562999725341797 50.959999084472656,-19.562999725341797 C50.959999084472656,-19.562999725341797 25.458999633789062,-58.68899917602539 25.458999633789062,-58.68899917602539 C25.458999633789062,-58.68899917602539 127.46199798583984,-215.1929931640625 127.46199798583984,-215.1929931640625 C127.46199798583984,-215.1929931640625 280.46600341796875,-215.1929931640625 280.46600341796875,-215.1929931640625 C280.46600341796875,-215.1929931640625 256.14801025390625,-177.8820037841797 224.3040008544922,-129.0229949951172"></path></g></g><g transform="matrix(1,0,0,1,0,0)" opacity="0.05476000000041381" web-developer-inline-style="display: none;"><g opacity="1" transform="matrix(1,0,0,1,400.0409851074219,326.02099609375)"><path stroke-linecap="round" stroke-linejoin="miter" fill-opacity="0" stroke-miterlimit="4" stroke="rgb(255,128,170)" stroke-opacity="1" stroke-width="21.526" d=" M0,58.75199890136719 C0,58.75199890136719 -110.21900177001953,-110.35800170898438 -143.53700256347656,-161.4770050048828"></path><path stroke-linecap="round" stroke-linejoin="miter" fill-opacity="0" stroke-miterlimit="4" stroke="rgb(255,128,170)" stroke-opacity="1" stroke-width="21.526" d=" M0,58.75199890136719 C0,58.75199890136719 -110.21900177001953,-110.35800170898438 -143.53700256347656,-161.4770050048828"></path></g></g><g transform="matrix(1,0,0,1,0,0)" opacity="0.05476000000041381" web-developer-inline-style="display: none;"><g opacity="1" transform="matrix(1,0,0,1,400.0409851074219,326.02099609375)"><path stroke-linecap="round" stroke-linejoin="miter" fill-opacity="0" stroke-miterlimit="4" stroke="rgb(255,204,102)" stroke-opacity="1" stroke-width="21.526" d=" M0,58.75199890136719 C0,58.75199890136719 -152.96299743652344,-175.94000244140625 -152.96299743652344,-175.94000244140625 C-152.96299743652344,-175.94000244140625 -203.96400451660156,-175.94000244140625 -203.96400451660156,-175.94000244140625 C-203.96400451660156,-175.94000244140625 -0.04100000113248825,136.9409942626953 -0.04100000113248825,136.9409942626953 C-0.04100000113248825,136.9409942626953 203.96400451660156,-176.06700134277344 203.96400451660156,-176.06700134277344 C203.96400451660156,-176.06700134277344 152.96299743652344,-176.06700134277344 152.96299743652344,-176.06700134277344 C152.96299743652344,-176.06700134277344 50.959999084472656,-19.562999725341797 50.959999084472656,-19.562999725341797 C50.959999084472656,-19.562999725341797 25.458999633789062,-58.68899917602539 25.458999633789062,-58.68899917602539 C25.458999633789062,-58.68899917602539 127.46199798583984,-215.1929931640625 127.46199798583984,-215.1929931640625 C127.46199798583984,-215.1929931640625 280.46600341796875,-215.1929931640625 280.46600341796875,-215.1929931640625 C280.46600341796875,-215.1929931640625 76.46099853515625,97.81500244140625 76.46099853515625,97.81500244140625 C76.46099853515625,97.81500244140625 -58.85900115966797,-109.80899810791016 -109.03399658203125,-186.79200744628906"></path><path stroke-linecap="round" stroke-linejoin="miter" fill-opacity="0" stroke-miterlimit="4" stroke="rgb(255,204,102)" stroke-opacity="1" stroke-width="21.526" d=" M0,58.75199890136719 C0,58.75199890136719 -152.96299743652344,-175.94000244140625 -152.96299743652344,-175.94000244140625 C-152.96299743652344,-175.94000244140625 -203.96400451660156,-175.94000244140625 -203.96400451660156,-175.94000244140625 C-203.96400451660156,-175.94000244140625 -0.04100000113248825,136.9409942626953 -0.04100000113248825,136.9409942626953 C-0.04100000113248825,136.9409942626953 203.96400451660156,-176.06700134277344 203.96400451660156,-176.06700134277344 C203.96400451660156,-176.06700134277344 152.96299743652344,-176.06700134277344 152.96299743652344,-176.06700134277344 C152.96299743652344,-176.06700134277344 50.959999084472656,-19.562999725341797 50.959999084472656,-19.562999725341797 C50.959999084472656,-19.562999725341797 25.458999633789062,-58.68899917602539 25.458999633789062,-58.68899917602539 C25.458999633789062,-58.68899917602539 127.46199798583984,-215.1929931640625 127.46199798583984,-215.1929931640625 C127.46199798583984,-215.1929931640625 280.46600341796875,-215.1929931640625 280.46600341796875,-215.1929931640625 C280.46600341796875,-215.1929931640625 76.46099853515625,97.81500244140625 76.46099853515625,97.81500244140625 C76.46099853515625,97.81500244140625 -58.85900115966797,-109.80899810791016 -109.03399658203125,-186.79200744628906"></path></g></g><g transform="matrix(1,0,0,1,0,0)" opacity="0.2567600000004404" web-developer-inline-style="display: none;"><g opacity="1" transform="matrix(1,0,0,1,400.0409851074219,326.02099609375)"><path stroke-linecap="round" stroke-linejoin="miter" fill-opacity="0" stroke-miterlimit="4" stroke="rgb(126,75,113)" stroke-opacity="1" stroke-width="21.526" d=" M0,58.75199890136719 C0,58.75199890136719 -3.438999891281128,53.47600173950195 -9.28499984741211,44.50600051879883"></path><path stroke-linecap="round" stroke-linejoin="miter" fill-opacity="0" stroke-miterlimit="4" stroke="rgb(126,75,113)" stroke-opacity="1" stroke-width="21.526" d=" M0,58.75199890136719 C0,58.75199890136719 -3.438999891281128,53.47600173950195 -9.28499984741211,44.50600051879883"></path></g></g><g transform="matrix(1,0,0,1,0,0)" opacity="0.055760000000418586" web-developer-inline-style="display: none;"><g opacity="1" transform="matrix(1,0,0,1,400.0409851074219,326.02099609375)"><path stroke-linecap="round" stroke-linejoin="miter" fill-opacity="0" stroke-miterlimit="4" stroke="rgb(255,44,114)" stroke-opacity="1" stroke-width="21.526" d=" M-87.10199737548828,-74.88899993896484 C-121.49299621582031,-127.65599822998047 -152.96299743652344,-175.94000244140625 -152.96299743652344,-175.94000244140625 C-152.96299743652344,-175.94000244140625 -203.96400451660156,-175.94000244140625 -203.96400451660156,-175.94000244140625 C-203.96400451660156,-175.94000244140625 -0.04100000113248825,136.9409942626953 -0.04100000113248825,136.9409942626953 C-0.04100000113248825,136.9409942626953 203.96400451660156,-176.06700134277344 203.96400451660156,-176.06700134277344 C203.96400451660156,-176.06700134277344 152.96299743652344,-176.06700134277344 152.96299743652344,-176.06700134277344 C152.96299743652344,-176.06700134277344 50.959999084472656,-19.562999725341797 50.959999084472656,-19.562999725341797 C50.959999084472656,-19.562999725341797 25.458999633789062,-58.68899917602539 25.458999633789062,-58.68899917602539 C25.458999633789062,-58.68899917602539 127.46199798583984,-215.1929931640625 127.46199798583984,-215.1929931640625 C127.46199798583984,-215.1929931640625 280.46600341796875,-215.1929931640625 280.46600341796875,-215.1929931640625 C280.46600341796875,-215.1929931640625 76.46099853515625,97.81500244140625 76.46099853515625,97.81500244140625 C76.46099853515625,97.81500244140625 -127.46199798583984,-215.0659942626953 -127.46199798583984,-215.0659942626953 C-127.46199798583984,-215.0659942626953 -280.46600341796875,-215.0659942626953 -280.46600341796875,-215.0659942626953 C-280.46600341796875,-215.0659942626953 -0.04100000113248825,215.1929931640625 -0.04100000113248825,215.1929931640625 C-0.04100000113248825,215.1929931640625 50.959999084472656,136.9409942626953 50.959999084472656,136.9409942626953"></path><path stroke-linecap="round" stroke-linejoin="miter" fill-opacity="0" stroke-miterlimit="4" stroke="rgb(255,44,114)" stroke-opacity="1" stroke-width="21.526" d=" M-87.10199737548828,-74.88899993896484 C-121.49299621582031,-127.65599822998047 -152.96299743652344,-175.94000244140625 -152.96299743652344,-175.94000244140625 C-152.96299743652344,-175.94000244140625 -203.96400451660156,-175.94000244140625 -203.96400451660156,-175.94000244140625 C-203.96400451660156,-175.94000244140625 -0.04100000113248825,136.9409942626953 -0.04100000113248825,136.9409942626953 C-0.04100000113248825,136.9409942626953 203.96400451660156,-176.06700134277344 203.96400451660156,-176.06700134277344 C203.96400451660156,-176.06700134277344 152.96299743652344,-176.06700134277344 152.96299743652344,-176.06700134277344 C152.96299743652344,-176.06700134277344 50.959999084472656,-19.562999725341797 50.959999084472656,-19.562999725341797 C50.959999084472656,-19.562999725341797 25.458999633789062,-58.68899917602539 25.458999633789062,-58.68899917602539 C25.458999633789062,-58.68899917602539 127.46199798583984,-215.1929931640625 127.46199798583984,-215.1929931640625 C127.46199798583984,-215.1929931640625 280.46600341796875,-215.1929931640625 280.46600341796875,-215.1929931640625 C280.46600341796875,-215.1929931640625 76.46099853515625,97.81500244140625 76.46099853515625,97.81500244140625 C76.46099853515625,97.81500244140625 -127.46199798583984,-215.0659942626953 -127.46199798583984,-215.0659942626953 C-127.46199798583984,-215.0659942626953 -280.46600341796875,-215.0659942626953 -280.46600341796875,-215.0659942626953 C-280.46600341796875,-215.0659942626953 -0.04100000113248825,215.1929931640625 -0.04100000113248825,215.1929931640625 C-0.04100000113248825,215.1929931640625 50.959999084472656,136.9409942626953 50.959999084472656,136.9409942626953"></path></g></g><g transform="matrix(1,0,0,1,0,0)" opacity="0.00652888888894637" web-developer-inline-style="display: none;"><g opacity="1" transform="matrix(1,0,0,1,400.0409851074219,326.02099609375)"><path stroke-linecap="round" stroke-linejoin="miter" fill-opacity="0" stroke-miterlimit="4" stroke="rgb(170,215,237)" stroke-opacity="1" stroke-width="21.526" d=" M0,58.75199890136719 C0,58.75199890136719 -152.96299743652344,-175.94000244140625 -152.96299743652344,-175.94000244140625 C-152.96299743652344,-175.94000244140625 -203.96400451660156,-175.94000244140625 -203.96400451660156,-175.94000244140625 C-203.96400451660156,-175.94000244140625 -0.04100000113248825,136.9409942626953 -0.04100000113248825,136.9409942626953 C-0.04100000113248825,136.9409942626953 203.96400451660156,-176.06700134277344 203.96400451660156,-176.06700134277344 C203.96400451660156,-176.06700134277344 152.96299743652344,-176.06700134277344 152.96299743652344,-176.06700134277344 C152.96299743652344,-176.06700134277344 50.959999084472656,-19.562999725341797 50.959999084472656,-19.562999725341797 C50.959999084472656,-19.562999725341797 25.458999633789062,-58.68899917602539 25.458999633789062,-58.68899917602539 C25.458999633789062,-58.68899917602539 127.46199798583984,-215.1929931640625 127.46199798583984,-215.1929931640625 C127.46199798583984,-215.1929931640625 280.46600341796875,-215.1929931640625 280.46600341796875,-215.1929931640625 C280.46600341796875,-215.1929931640625 76.46099853515625,97.81500244140625 76.46099853515625,97.81500244140625 C76.46099853515625,97.81500244140625 -127.46199798583984,-215.0659942626953 -127.46199798583984,-215.0659942626953 C-127.46199798583984,-215.0659942626953 -280.46600341796875,-215.0659942626953 -280.46600341796875,-215.0659942626953 C-280.46600341796875,-215.0659942626953 -0.04100000113248825,215.1929931640625 -0.04100000113248825,215.1929931640625 C-0.04100000113248825,215.1929931640625 50.959999084472656,136.9409942626953 50.959999084472656,136.9409942626953"></path></g></g><g transform="matrix(1,0,0,1,0,0)" opacity="0.05676000000045178" web-developer-inline-style="display: none;"><g opacity="1" transform="matrix(1,0,0,1,400.5669860839844,387.25)"><path fill="rgb(170,215,237)" fill-opacity="1" d=" M-0.4580000042915344,17.413999557495117 C-0.4580000042915344,17.413999557495117 12.336999893188477,-2.3570001125335693 12.336999893188477,-2.3570001125335693 C12.336999893188477,-2.3570001125335693 5.288000106811523,-12.913999557495117 5.288000106811523,-12.913999557495117 C5.288000106811523,-12.913999557495117 -12.336999893188477,-0.8389999866485596 -12.336999893188477,-0.8389999866485596 C-12.336999893188477,-0.8389999866485596 -0.4580000042915344,17.413999557495117 -0.4580000042915344,17.413999557495117z"></path></g><g opacity="1" transform="matrix(1,0,0,1,0,0)"><path fill="rgb(170,215,237)" fill-opacity="1" d="M0 0"></path><path stroke-linecap="butt" stroke-linejoin="miter" fill-opacity="0" stroke-miterlimit="4" stroke="rgb(170,215,237)" stroke-opacity="1" stroke-width="22" d="M0 0"></path></g></g><g transform="matrix(0.7958899736404419,0,0,0.7958899736404419,392.6865234375,298.6619873046875)" opacity="0.028759999999991237" web-developer-inline-style="display: none;"><g opacity="1" transform="matrix(1,0,0,1,0,1.6820000410079956)"><path fill="rgb(168,216,147)" fill-opacity="1" d=" M0,-39.68149948120117 C21.900218963623047,-39.68149948120117 39.68149948120117,-21.900218963623047 39.68149948120117,0 C39.68149948120117,21.900218963623047 21.900218963623047,39.68149948120117 0,39.68149948120117 C-21.900218963623047,39.68149948120117 -39.68149948120117,21.900218963623047 -39.68149948120117,0 C-39.68149948120117,-21.900218963623047 -21.900218963623047,-39.68149948120117 0,-39.68149948120117z"></path></g></g><g transform="matrix(0.7958899736404419,0,0,0.7958899736404419,316.2699890136719,298.6619873046875)" opacity="0.028759999999991237" web-developer-inline-style="display: none;"><g opacity="1" transform="matrix(1,0,0,1,98.60199737548828,1.6820000410079956)"><path fill="rgb(22,30,36)" fill-opacity="1" d=" M0,-39.68149948120117 C21.900218963623047,-39.68149948120117 39.68149948120117,-21.900218963623047 39.68149948120117,0 C39.68149948120117,21.900218963623047 21.900218963623047,39.68149948120117 0,39.68149948120117 C-21.900218963623047,39.68149948120117 -39.68149948120117,21.900218963623047 -39.68149948120117,0 C-39.68149948120117,-21.900218963623047 -21.900218963623047,-39.68149948120117 0,-39.68149948120117z"></path></g></g><g transform="matrix(0.7958899736404419,0,0,0.7958899736404419,232.77926635742188,298.6619873046875)" opacity="0.028759999999991237" web-developer-inline-style="display: none;"><g opacity="1" transform="matrix(1,0,0,1,202.98500061035156,1.6820000410079956)"><path fill="rgb(255,128,170)" fill-opacity="1" d=" M0,-39.68149948120117 C21.900218963623047,-39.68149948120117 39.68149948120117,-21.900218963623047 39.68149948120117,0 C39.68149948120117,21.900218963623047 21.900218963623047,39.68149948120117 0,39.68149948120117 C-21.900218963623047,39.68149948120117 -39.68149948120117,21.900218963623047 -39.68149948120117,0 C-39.68149948120117,-21.900218963623047 -21.900218963623047,-39.68149948120117 0,-39.68149948120117z"></path></g></g><g transform="matrix(0.7958899736404419,0,0,0.7958899736404419,120.39474487304688,298.6619873046875)" opacity="0.22575999999999397" web-developer-inline-style="display: none;"><g opacity="1" transform="matrix(1,0,0,1,344.885986328125,1.6820000410079956)"><path fill="rgb(255,204,102)" fill-opacity="1" d=" M0,-39.68149948120117 C21.900218963623047,-39.68149948120117 39.68149948120117,-21.900218963623047 39.68149948120117,0 C39.68149948120117,21.900218963623047 21.900218963623047,39.68149948120117 0,39.68149948120117 C-21.900218963623047,39.68149948120117 -39.68149948120117,21.900218963623047 -39.68149948120117,0 C-39.68149948120117,-21.900218963623047 -21.900218963623047,-39.68149948120117 0,-39.68149948120117z"></path></g></g><g transform="matrix(0.7958899736404419,0,0,0.7958899736404419,119.92253875732422,298.6619873046875)" opacity="0.22575999999999397" web-developer-inline-style="display: none;"><g opacity="1" transform="matrix(1,0,0,1,344.885986328125,1.6820000410079956)"><path fill="rgb(126,75,113)" fill-opacity="1" d=" M0,-39.68149948120117 C21.900218963623047,-39.68149948120117 39.68149948120117,-21.900218963623047 39.68149948120117,0 C39.68149948120117,21.900218963623047 21.900218963623047,39.68149948120117 0,39.68149948120117 C-21.900218963623047,39.68149948120117 -39.68149948120117,21.900218963623047 -39.68149948120117,0 C-39.68149948120117,-21.900218963623047 -21.900218963623047,-39.68149948120117 0,-39.68149948120117z"></path></g></g><g transform="matrix(0.7958899736404419,0,0,0.7958899736404419,120.4546890258789,298.6619873046875)" opacity="0.22575999999999397" web-developer-inline-style="display: none;"><g opacity="1" transform="matrix(1,0,0,1,344.885986328125,1.6820000410079956)"><path fill="rgb(255,44,114)" fill-opacity="1" d=" M0,-39.68149948120117 C21.900218963623047,-39.68149948120117 39.68149948120117,-21.900218963623047 39.68149948120117,0 C39.68149948120117,21.900218963623047 21.900218963623047,39.68149948120117 0,39.68149948120117 C-21.900218963623047,39.68149948120117 -39.68149948120117,21.900218963623047 -39.68149948120117,0 C-39.68149948120117,-21.900218963623047 -21.900218963623047,-39.68149948120117 0,-39.68149948120117z"></path></g></g><g transform="matrix(0.7958899736404419,0,0,0.7958899736404419,120.23416900634766,298.6619873046875)" opacity="0.22575999999999397" web-developer-inline-style="display: none;"><g opacity="1" transform="matrix(1,0,0,1,344.885986328125,1.6820000410079956)"><path fill="rgb(170,215,237)" fill-opacity="1" d=" M0,-39.68149948120117 C21.900218963623047,-39.68149948120117 39.68149948120117,-21.900218963623047 39.68149948120117,0 C39.68149948120117,21.900218963623047 21.900218963623047,39.68149948120117 0,39.68149948120117 C-21.900218963623047,39.68149948120117 -39.68149948120117,21.900218963623047 -39.68149948120117,0 C-39.68149948120117,-21.900218963623047 -21.900218963623047,-39.68149948120117 0,-39.68149948120117z"></path></g></g><g transform="matrix(0.11896000057458878,0,0,0.11896000057458878,399.4187927246094,396.79833984375)" opacity="0.028759999999991237" web-developer-inline-style="display: none;"><g opacity="1" transform="matrix(1,0,0,1,0,1.6820000410079956)"><path fill="rgb(146,131,168)" fill-opacity="1" d=" M0,-39.68149948120117 C21.900218963623047,-39.68149948120117 39.68149948120117,-21.900218963623047 39.68149948120117,0 C39.68149948120117,21.900218963623047 21.900218963623047,39.68149948120117 0,39.68149948120117 C-21.900218963623047,39.68149948120117 -39.68149948120117,21.900218963623047 -39.68149948120117,0 C-39.68149948120117,-21.900218963623047 -21.900218963623047,-39.68149948120117 0,-39.68149948120117z"></path></g></g><g transform="matrix(1,0,0,1,0,0)" opacity="1" web-developer-inline-style="display: block;"><g opacity="1" transform="matrix(1,0,0,1,400,330.406005859375)"><path fill="rgb(22,30,36)" fill-opacity="1" d=" M-0.03999999910593033,230.406005859375 C-0.03999999910593033,230.406005859375 -300,-230.27699279785156 -300,-230.27699279785156 C-300,-230.27699279785156 -121.49700164794922,-230.27699279785156 -121.49700164794922,-230.27699279785156 C-121.49700164794922,-230.27699279785156 50.904998779296875,34.49599838256836 50.904998779296875,34.49599838256836 C50.904998779296875,34.49599838256836 183.8979949951172,-169.76199340820312 183.8979949951172,-169.76199340820312 C183.8979949951172,-169.76199340820312 158.62100219726562,-169.76199340820312 158.62100219726562,-169.76199340820312 C158.62100219726562,-169.76199340820312 50.904998779296875,-4.324999809265137 50.904998779296875,-4.324999809265137 C50.904998779296875,-4.324999809265137 12.597999572753906,-63.15399932861328 12.597999572753906,-63.15399932861328 C12.597999572753906,-63.15399932861328 121.49800109863281,-230.406005859375 121.49800109863281,-230.406005859375 C121.49800109863281,-230.406005859375 300,-230.406005859375 300,-230.406005859375 C300,-230.406005859375 76.37899780273438,113.03700256347656 76.37899780273438,113.03700256347656 C76.37899780273438,113.03700256347656 50.904998779296875,73.91799926757812 50.904998779296875,73.91799926757812 C50.904998779296875,73.91799926757812 -0.03999999910593033,152.16099548339844 -0.03999999910593033,152.16099548339844 C-0.03999999910593033,152.16099548339844 -223.58200073242188,-191.1580047607422 -223.58200073242188,-191.1580047607422 C-223.58200073242188,-191.1580047607422 -146.96800231933594,-191.1580047607422 -146.96800231933594,-191.1580047607422 C-146.96800231933594,-191.1580047607422 12.904999732971191,54.486000061035156 12.904999732971191,54.486000061035156 C12.904999732971191,54.486000061035156 0.10999999940395355,74.25700378417969 0.10999999940395355,74.25700378417969 C0.10999999940395355,74.25700378417969 -158.61599731445312,-169.63499450683594 -158.61599731445312,-169.63499450683594 C-158.61599731445312,-169.63499450683594 -183.8979949951172,-169.63499450683594 -183.8979949951172,-169.63499450683594 C-183.8979949951172,-169.63499450683594 -0.03999999910593033,112.73999786376953 -0.03999999910593033,112.73999786376953 C-0.03999999910593033,112.73999786376953 38.07099914550781,54.20800018310547 38.07099914550781,54.20800018310547 C38.07099914550781,54.20800018310547 -133.14599609375,-208.7550048828125 -133.14599609375,-208.7550048828125 C-133.14599609375,-208.7550048828125 -260.31500244140625,-208.7550048828125 -260.31500244140625,-208.7550048828125 C-260.31500244140625,-208.7550048828125 -0.03999999910593033,190.98199462890625 -0.03999999910593033,190.98199462890625 C-0.03999999910593033,190.98199462890625 50.70500183105469,113.04499816894531 50.70500183105469,113.04499816894531 C50.70500183105469,113.04499816894531 63.500999450683594,132.8159942626953 63.500999450683594,132.8159942626953 C63.500999450683594,132.8159942626953 -0.03999999910593033,230.406005859375 -0.03999999910593033,230.406005859375z M63.737998962402344,54.20800018310547 C63.737998962402344,54.20800018310547 76.37899780273438,73.61699676513672 76.37899780273438,73.61699676513672 C76.37899780273438,73.61699676513672 260.3160095214844,-208.88400268554688 260.3160095214844,-208.88400268554688 C260.3160095214844,-208.88400268554688 133.1479949951172,-208.88400268554688 133.1479949951172,-208.88400268554688 C133.1479949951172,-208.88400268554688 38.263999938964844,-63.15399932861328 38.263999938964844,-63.15399932861328 C38.263999938964844,-63.15399932861328 50.904998779296875,-43.74800109863281 50.904998779296875,-43.74800109863281 C50.904998779296875,-43.74800109863281 146.9720001220703,-191.28399658203125 146.9720001220703,-191.28399658203125 C146.9720001220703,-191.28399658203125 223.58299255371094,-191.28399658203125 223.58299255371094,-191.28399658203125 C223.58299255371094,-191.28399658203125 63.737998962402344,54.20800018310547 63.737998962402344,54.20800018310547z"></path></g></g></g></svg>