<?xml version="1.0" encoding="UTF-8"?><svg id="small_icons" xmlns="http://www.w3.org/2000/svg" viewBox="0 0 50 50"><defs><style>.cls-1{fill:#fff;}.cls-2{fill:#fc6;}</style></defs><circle class="cls-2" cx="25" cy="25" r="25"/><path class="cls-1" d="m36.36,21.99c-.81,0-1.59.13-2.34.39l-1.89-6.24h2.47c.65,0,1.18.53,1.18,1.18s-.53,1.18-1.18,1.18c-.41,0-.75.34-.75.75s.34.75.75.75c1.48,0,2.68-1.2,2.68-2.68s-1.2-2.68-2.68-2.68h-3.48c-.24,0-.46.11-.6.3-.14.19-.18.44-.12.66l.78,2.58-10.61.94-1.32-3.54,2.08-.33c.45-.08.76-.48.72-.94-.04-.46-.42-.8-.87-.8h-5.93c-.38,0-.72.21-.88.56-.16.34-.11.74.13,1.03l.23.28c.39.47,1.12.62,1.66.62.12,0,.24,0,.33-.02l1.01-.16,1.49,3.99-6.21,8.99c-.16.23-.18.53-.05.77s.39.4.66.4h5.69c-.37,2.81-2.78,5-5.69,5-3.17,0-5.75-2.58-5.75-5.75s2.58-5.75,5.75-5.75c.24,0,.48.01.71.04.42.05.79-.24.84-.65s-.24-.79-.65-.84c-.29-.04-.59-.06-.9-.06-4,0-7.25,3.25-7.25,7.25s3.25,7.25,7.25,7.25c3.74,0,6.83-2.85,7.21-6.5h2.7c.09,0,.18-.01.26-.05,0,0,0,0,0,0,.06-.02.12-.07.17-.11.02-.02.05-.03.08-.05,0,0,0,0,0,0l8.21-7.96.42,1.38c.03.12.08.25.13.42.07.2,1.66,5,3,6.18.14.12.32.19.5.19.21,0,.42-.09.56-.25.27-.31.24-.79-.07-1.06-.58-.51-1.61-2.8-2.34-4.87.6-.21,1.23-.32,1.88-.32,3.17,0,5.74,2.58,5.74,5.75s-2.58,5.75-5.74,5.75-5.75-2.58-5.75-5.75c0-1.22.38-2.38,1.09-3.37.24-.33.17-.8-.17-1.05-.33-.24-.8-.17-1.05.17-.9,1.24-1.38,2.71-1.38,4.25,0,4,3.25,7.25,7.25,7.25s7.24-3.25,7.24-7.25-3.25-7.25-7.24-7.25Zm-13.89,6.5h-1.63c-.19-1.84-1.08-3.54-2.49-4.75l1.52-2.21,2.6,6.95Zm-4.98-3.51c1.01.92,1.66,2.16,1.84,3.51h-4.26l2.42-3.51Zm6.36,2.92l-2.73-7.31,10.51-.93.17.55-7.94,7.7Z"/></svg>