<?xml version="1.0" encoding="UTF-8"?><svg id="small_icons" xmlns="http://www.w3.org/2000/svg" viewBox="0 0 50 50"><defs><style>.cls-1{fill:#fff;}.cls-2{fill:#7e4b71;}</style></defs><circle class="cls-2" cx="25.04" cy="25" r="25"/><g><path class="cls-1" d="m34.11,20.6c-.09-.29-.18-.61-.28-.97-.5-1.73-1.18-4.11-2.19-6.4-1.3-2.96-2.13-4.38-6.59-4.38s-5.29,1.42-6.59,4.39c-1.01,2.3-1.7,4.67-2.2,6.4-.1.36-.2.68-.28.97-.23.76-.13,1.54.28,2.26.65,1.12,2.04,1.99,3.91,2.45,1.31.31,2.57.35,3.89.35.17,0,.34,0,.5,0h.49s.49,0,.49,0c1.49,0,2.92,0,4.39-.35,1.87-.45,3.26-1.32,3.91-2.45.41-.72.51-1.5.28-2.26Zm-1.58,1.51c-.43.75-1.51,1.39-2.96,1.73-1.3.31-2.56.31-4.04.3h-.45s-.01,0-.02,0h-.52c-1.47,0-2.74,0-4.04-.3-1.45-.35-2.53-.98-2.96-1.73-.21-.36-.25-.72-.15-1.08.09-.29.18-.62.29-.98.49-1.69,1.16-4.01,2.13-6.22,1.18-2.68,1.54-3.49,5.22-3.49s4.04.81,5.22,3.49c.97,2.2,1.64,4.52,2.12,6.21.11.37.2.7.29.99.11.36.06.73-.15,1.08Z"/><path class="cls-1" d="m30,27.33c-.13-.39-.55-.61-.95-.48-.39.13-.61.55-.48.95l1.5,4.62-3.4-1.72.89-.46c.37-.19.51-.64.33-1.01-.19-.37-.64-.51-1.01-.33l-1.86.95-1.89-.95c-.37-.19-.82-.04-1.01.33-.19.37-.04.82.33,1.01l.91.46-3.44,1.76,1.52-4.67c.13-.39-.09-.82-.48-.95-.39-.13-.82.09-.95.48l-2.08,6.39s0,0,0,0l-1.28,3.94c-.13.39.09.82.48.95.08.03.16.04.23.04.32,0,.61-.2.71-.52l1.19-3.65,5.76-2.95,5.71,2.89,1.21,3.71c.1.32.4.52.71.52.08,0,.16-.01.23-.04.39-.13.61-.55.48-.95l-3.37-10.34Z"/></g></svg>