<?xml version="1.0" encoding="UTF-8"?><svg id="small_icons" xmlns="http://www.w3.org/2000/svg" viewBox="0 0 50 50"><defs><style>.cls-1{fill:#fff;}.cls-2{fill:#9283a8;}</style></defs><circle class="cls-2" cx="24.96" cy="25" r="25"/><path class="cls-1" d="m36.04,29.01c-.04-.21-.17-.4-.36-.51-2.53-1.48-5.71-1.35-8.1.34-.75.53-1.37,1.19-1.86,1.93v-5.29c2.91-.38,5.18-2.95,5.18-5.99v-2.59c0-.65-.53-1.18-1.18-1.18h-1.75v-2.87c0-.41-.34-.75-.75-.75s-.75.34-.75.75v2.87h-3v-2.87c0-.41-.34-.75-.75-.75s-.75.34-.75.75v2.87h-1.75c-.65,0-1.18.53-1.18,1.18v2.69c0,1.62.64,3.12,1.8,4.25.93.91,2.12,1.45,3.39,1.61v5.32c-.5-.74-1.11-1.4-1.86-1.93-2.4-1.69-5.57-1.82-8.11-.33-.19.11-.32.29-.36.51-.55,2.88.64,5.83,3.03,7.52,1.29.91,2.8,1.36,4.31,1.36,1.28,0,2.57-.33,3.73-1,1.16.66,2.44,1,3.73,1,1.52,0,3.03-.46,4.31-1.36,2.39-1.69,3.59-4.64,3.03-7.52Zm-15.51-9.42v-2.38h8.86v2.27c0,2.44-1.93,4.47-4.31,4.54-1.22.04-2.35-.41-3.21-1.25-.87-.84-1.34-1.97-1.34-3.18Zm-2.74,15.72c-1.82-1.29-2.77-3.48-2.48-5.68,1.97-1.01,4.36-.85,6.18.43,1.65,1.16,2.57,3.07,2.52,5.05l-4.61-3.25c-.24-.17-.57-.11-.74.13-.17.24-.11.57.13.74l4.61,3.25c-1.85.71-3.96.48-5.61-.68Zm14.35,0c-1.65,1.16-3.76,1.39-5.61.68l4.61-3.25c.24-.17.3-.5.13-.74-.17-.24-.5-.3-.74-.13l-4.61,3.25c-.05-1.98.87-3.89,2.52-5.05,1.82-1.28,4.21-1.44,6.18-.43.29,2.19-.66,4.39-2.48,5.67Z"/></svg>