<?xml version="1.0" encoding="utf-8"?>
<!-- Generator: Adobe Illustrator 27.6.0, SVG Export Plug-In . SVG Version: 6.00 Build 0)  -->
<svg version="1.1" id="small_icons" xmlns="http://www.w3.org/2000/svg" xmlns:xlink="http://www.w3.org/1999/xlink" x="0px"
	 y="0px" viewBox="0 0 50 50" style="enable-background:new 0 0 50 50;" xml:space="preserve">
<style type="text/css">
	.st0{fill:#57AD82;}
	.st1{fill:#FFFFFF;}
</style>
<circle class="st0" cx="25" cy="25" r="25"/>
<g>
	<path class="st1" d="M26.2,19.9c-0.1,0.4,0.1,0.8,0.5,0.9l3.1,1l0,0l0,0h0.1c0.1,0,0.2,0,0.3,0l0,0c0.1,0,0.1,0,0.2-0.1l0,0
		c0,0,0.1,0,0.1-0.1l0,0c0,0,0,0,0-0.1c0,0,0-0.1,0.1-0.1l0,0l0.8-3.2c0.1-0.4-0.1-0.8-0.5-0.9s-0.8,0.1-0.9,0.5l-0.3,1.4l-2.6-4.4
		c-0.5-0.8-1.2-1.2-2.1-1.2l0,0c-0.9,0-1.7,0.4-2.1,1.2l-3.5,6c-0.2,0.4-0.1,0.8,0.3,1c0.1,0.1,0.2,0.1,0.4,0.1
		c0.3,0,0.5-0.1,0.6-0.4l3.5-6c0.2-0.3,0.5-0.5,0.8-0.5s0.6,0.2,0.8,0.5l2.6,4.3l-1.3-0.4C26.7,19.3,26.3,19.5,26.2,19.9L26.2,19.9z
		"/>
	<path class="st1" d="M22.9,32.8l-7-0.1c-0.4,0-0.6-0.2-0.8-0.5s-0.2-0.7,0-1l2.5-4.4l0.3,1.3c0.1,0.4,0.5,0.7,0.9,0.6
		s0.7-0.5,0.6-0.9l-0.7-3.2l0,0l0,0l0,0c0-0.1-0.1-0.1-0.1-0.2l0,0c0,0-0.1-0.1-0.2-0.1l0,0c-0.1,0-0.1-0.1-0.2-0.1l0,0l0,0
		c-0.1,0-0.2,0-0.2,0l0,0L14.5,25c-0.4,0.1-0.6,0.5-0.5,0.9c0.1,0.3,0.4,0.5,0.7,0.5c0.1,0,0.1,0,0.2,0l1.4-0.4l-2.5,4.5
		c-0.4,0.8-0.4,1.7,0,2.4c0.4,0.8,1.2,1.2,2.1,1.2l7,0.1l0,0c0.4,0,0.8-0.3,0.8-0.7S23.3,32.8,22.9,32.8L22.9,32.8z"/>
	<path class="st1" d="M36.3,30.5l-3.4-6.1c-0.2-0.4-0.7-0.5-1-0.3c-0.4,0.2-0.5,0.7-0.3,1l3.4,6.1c0.2,0.3,0.2,0.6,0,1
		c-0.2,0.3-0.5,0.5-0.8,0.5l-5,0.1l1-0.9c0.3-0.3,0.3-0.8,0-1.1c-0.3-0.3-0.8-0.3-1.1,0L26.7,33l0,0l0,0l0,0c0,0.1-0.1,0.1-0.1,0.2
		c0,0,0,0,0,0.1s0,0.1,0,0.2c0,0,0,0,0,0.1s0,0.2,0,0.2l0,0l0,0c0,0.1,0.1,0.1,0.1,0.2l0,0l2.4,2.2c0.1,0.1,0.3,0.2,0.5,0.2
		s0.4-0.1,0.5-0.2c0.3-0.3,0.3-0.8,0-1.1l-1-1h5.1c0.9,0,1.7-0.5,2.1-1.2C36.7,32.2,36.7,31.3,36.3,30.5L36.3,30.5z"/>
</g>
</svg>
